# xmcd CD database file
#
# Track frame offsets:
#	182
#	18290
#	39085
#	66857
#	99945
#	117382
#	133692
#
# Disc length: 2046 seconds
#
# Revision: 4
# Processed by: cddbd v1.5.2PL0 Copyright (c) Steve Scherf et al.
# Submitted via: CDex 1.81
#
DISCID=5107fc07
DTITLE=Andru Donalds - Simple Obsession
DYEAR=1999
DGENRE=Blues
TTITLE0=Simple Obsession (Radio Edit)
TTITLE1=Deep Cutz Club Mix
TTITLE2=Summer Breeze Club Mix
TTITLE3=Emmsa Dub Vocal Mix
TTITLE4=Pop 2 Pop Mix
TTITLE5=Deep Cutz Radio Edit
TTITLE6=Summer Breeze Radio Edit
EXTD=YEAR: 1999
EXTT0=
EXTT1=
EXTT2=
EXTT3=
EXTT4=
EXTT5=
EXTT6=
PLAYORDER=
